<mxfile host="app.diagrams.net" modified="2023-09-27T02:09:07.746Z" agent="Mozilla/5.0 (X11; Linux x86_64) AppleWebKit/537.36 (KHTML, like Gecko) Chrome/114.0.0.0 Safari/537.36" etag="N80CliIUaUZVT8r7RO59" version="21.8.2" type="github" pages="2">
  <diagram name="Data Model" id="aJtoK0wsgS0gdZbk_naw">
    <mxGraphModel dx="909" dy="468" grid="1" gridSize="10" guides="1" tooltips="1" connect="1" arrows="1" fold="1" page="1" pageScale="1" pageWidth="850" pageHeight="1100" math="0" shadow="0">
      <root>
        <mxCell id="0" />
        <mxCell id="1" parent="0" />
        <mxCell id="L3DIIkoHckH0TgxC9d3S-29" style="edgeStyle=orthogonalEdgeStyle;rounded=0;orthogonalLoop=1;jettySize=auto;html=1;exitX=0.5;exitY=0;exitDx=0;exitDy=0;entryX=0;entryY=0.5;entryDx=0;entryDy=0;" parent="1" source="L3DIIkoHckH0TgxC9d3S-1" target="L3DIIkoHckH0TgxC9d3S-6" edge="1">
          <mxGeometry relative="1" as="geometry" />
        </mxCell>
        <mxCell id="L3DIIkoHckH0TgxC9d3S-30" style="edgeStyle=orthogonalEdgeStyle;rounded=0;orthogonalLoop=1;jettySize=auto;html=1;exitX=0.75;exitY=0;exitDx=0;exitDy=0;entryX=0.5;entryY=1;entryDx=0;entryDy=0;" parent="1" source="L3DIIkoHckH0TgxC9d3S-1" target="L3DIIkoHckH0TgxC9d3S-8" edge="1">
          <mxGeometry relative="1" as="geometry" />
        </mxCell>
        <mxCell id="L3DIIkoHckH0TgxC9d3S-1" value="enigma_jhud" style="swimlane;fontStyle=0;childLayout=stackLayout;horizontal=1;startSize=26;fillColor=none;horizontalStack=0;resizeParent=1;resizeParentMax=0;resizeLast=0;collapsible=1;marginBottom=0;whiteSpace=wrap;html=1;" parent="1" vertex="1">
          <mxGeometry x="310" y="310" width="210" height="260" as="geometry" />
        </mxCell>
        <mxCell id="L3DIIkoHckH0TgxC9d3S-2" value="&lt;pre style=&quot;border-color: var(--border-color); font-size: var(--font-size-body-s-533prh, 12px); font-style: normal; font-variant-ligatures: normal; font-variant-caps: normal; font-weight: 400; letter-spacing: normal; orphans: 2; text-align: left; text-indent: 0px; text-transform: none; widows: 2; word-spacing: 0px; -webkit-text-stroke-width: 0px; text-decoration-thickness: initial; text-decoration-style: initial; text-decoration-color: initial; font-family: var(--font-family-monospace-yt4nwf, Monaco, Menlo, Consolas, &amp;quot;Courier Prime&amp;quot;, Courier, &amp;quot;Courier New&amp;quot;, monospace); background-image: initial; background-position: initial; background-size: initial; background-repeat: initial; background-attachment: initial; background-origin: initial; background-clip: initial; margin-top: 0px; margin-bottom: 0px; overflow: auto; padding: var(--space-scaled-xl-rljqft, 24px) var(--space-xl-5fdwzu, 24px); -webkit-font-smoothing: auto; line-height: var(--line-height-body-s-n0pazd, 16px);&quot; class=&quot;awsui_root_18wu0_1v7to_93 awsui_box_18wu0_1v7to_207 awsui_pre-variant_18wu0_1v7to_207 awsui_p-xl_18wu0_1v7to_677 awsui_color-default_18wu0_1v7to_207 awsui_font-size-body-s_18wu0_1v7to_349 awsui_font-weight-default_18wu0_1v7to_263&quot; data-testid=&quot;query-results-text&quot;&gt;`fips` bigint, &lt;br style=&quot;border-color: var(--border-color);&quot;&gt;`admin2` string, &lt;br style=&quot;border-color: var(--border-color);&quot;&gt;`province_state` string, &lt;br style=&quot;border-color: var(--border-color);&quot;&gt;`country_region` string, &lt;br style=&quot;border-color: var(--border-color);&quot;&gt;`last_update` string, &lt;br style=&quot;border-color: var(--border-color);&quot;&gt;`latitude` double, &lt;br style=&quot;border-color: var(--border-color);&quot;&gt;`longitude` double, &lt;br style=&quot;border-color: var(--border-color);&quot;&gt;`confirmed` bigint, &lt;br style=&quot;border-color: var(--border-color);&quot;&gt;`deaths` bigint, &lt;br style=&quot;border-color: var(--border-color);&quot;&gt;`recovered` bigint, &lt;br style=&quot;border-color: var(--border-color);&quot;&gt;`active` string, &lt;br style=&quot;border-color: var(--border-color);&quot;&gt;`combined_key` string&lt;/pre&gt;" style="text;align=left;verticalAlign=top;spacingLeft=4;spacingRight=4;overflow=hidden;rotatable=0;points=[[0,0.5],[1,0.5]];portConstraint=eastwest;whiteSpace=wrap;html=1;fontColor=default;labelBackgroundColor=none;" parent="L3DIIkoHckH0TgxC9d3S-1" vertex="1">
          <mxGeometry y="26" width="210" height="234" as="geometry" />
        </mxCell>
        <mxCell id="L3DIIkoHckH0TgxC9d3S-5" value="nytimes_data_in_usa_us_county" style="swimlane;fontStyle=0;childLayout=stackLayout;horizontal=1;startSize=26;fillColor=none;horizontalStack=0;resizeParent=1;resizeParentMax=0;resizeLast=0;collapsible=1;marginBottom=0;whiteSpace=wrap;html=1;" parent="1" vertex="1">
          <mxGeometry x="480" y="50" width="190" height="170" as="geometry" />
        </mxCell>
        <mxCell id="L3DIIkoHckH0TgxC9d3S-6" value="&lt;pre style=&quot;border-color: var(--border-color); orphans: 2; text-align: left; text-indent: 0px; widows: 2; text-decoration-thickness: initial; text-decoration-style: initial; text-decoration-color: initial; background-image: initial; background-position: initial; background-size: initial; background-repeat: initial; background-attachment: initial; background-origin: initial; background-clip: initial; margin-top: 0px; margin-bottom: 0px; overflow: auto; padding: var(--space-scaled-xl-rljqft, 24px) var(--space-xl-5fdwzu, 24px); -webkit-font-smoothing: auto; line-height: var(--line-height-body-s-n0pazd, 16px);&quot; class=&quot;awsui_root_18wu0_1v7to_93 awsui_box_18wu0_1v7to_207 awsui_pre-variant_18wu0_1v7to_207 awsui_p-xl_18wu0_1v7to_677 awsui_color-default_18wu0_1v7to_207 awsui_font-size-body-s_18wu0_1v7to_349 awsui_font-weight-default_18wu0_1v7to_263&quot; data-testid=&quot;query-results-text&quot;&gt;&lt;font face=&quot;Monaco, Menlo, Consolas, Courier Prime, Courier, Courier New, monospace&quot;&gt;`date` string, &lt;br/&gt;`county` string, &lt;br/&gt;`state` string, &lt;br/&gt;`fips` bigint, &lt;br/&gt;`cases` bigint, &lt;br/&gt;`deaths` bigint&lt;/font&gt;&lt;font face=&quot;var(--font-family-monospace-yt4nwf, Monaco, Menlo, Consolas, Courier Prime, Courier, Courier New, monospace)&quot;&gt;&lt;br&gt;&lt;/font&gt;&lt;/pre&gt;" style="text;align=left;verticalAlign=top;spacingLeft=4;spacingRight=4;overflow=hidden;rotatable=0;points=[[0,0.5],[1,0.5]];portConstraint=eastwest;whiteSpace=wrap;html=1;fontColor=default;labelBackgroundColor=none;spacingTop=-10;" parent="L3DIIkoHckH0TgxC9d3S-5" vertex="1">
          <mxGeometry y="26" width="190" height="144" as="geometry" />
        </mxCell>
        <mxCell id="L3DIIkoHckH0TgxC9d3S-8" value="nytimes_data_in_usa_us_states" style="swimlane;fontStyle=0;childLayout=stackLayout;horizontal=1;startSize=26;fillColor=none;horizontalStack=0;resizeParent=1;resizeParentMax=0;resizeLast=0;collapsible=1;marginBottom=0;whiteSpace=wrap;html=1;" parent="1" vertex="1">
          <mxGeometry x="820" y="90" width="190" height="130" as="geometry" />
        </mxCell>
        <mxCell id="L3DIIkoHckH0TgxC9d3S-9" value="&lt;pre style=&quot;border-color: var(--border-color); orphans: 2; text-align: left; text-indent: 0px; widows: 2; text-decoration-thickness: initial; text-decoration-style: initial; text-decoration-color: initial; background-image: initial; background-position: initial; background-size: initial; background-repeat: initial; background-attachment: initial; background-origin: initial; background-clip: initial; margin-top: 0px; margin-bottom: 0px; overflow: auto; padding: var(--space-scaled-xl-rljqft, 24px) var(--space-xl-5fdwzu, 24px); -webkit-font-smoothing: auto; line-height: var(--line-height-body-s-n0pazd, 16px);&quot; class=&quot;awsui_root_18wu0_1v7to_93 awsui_box_18wu0_1v7to_207 awsui_pre-variant_18wu0_1v7to_207 awsui_p-xl_18wu0_1v7to_677 awsui_color-default_18wu0_1v7to_207 awsui_font-size-body-s_18wu0_1v7to_349 awsui_font-weight-default_18wu0_1v7to_263&quot; data-testid=&quot;query-results-text&quot;&gt;&lt;font face=&quot;Monaco, Menlo, Consolas, Courier Prime, Courier, Courier New, monospace&quot;&gt;`date` string, &lt;br/&gt;`state` string, &lt;br/&gt;`fips` bigint, &lt;br/&gt;`cases` bigint, &lt;br/&gt;`deaths` bigint&lt;/font&gt;&lt;font face=&quot;var(--font-family-monospace-yt4nwf, Monaco, Menlo, Consolas, Courier Prime, Courier, Courier New, monospace)&quot;&gt;&lt;br&gt;&lt;/font&gt;&lt;/pre&gt;" style="text;align=left;verticalAlign=middle;spacingLeft=4;spacingRight=4;overflow=hidden;rotatable=0;points=[[0,0.5],[1,0.5]];portConstraint=eastwest;whiteSpace=wrap;html=1;fontColor=default;labelBackgroundColor=none;spacing=0;spacingTop=-10;" parent="L3DIIkoHckH0TgxC9d3S-8" vertex="1">
          <mxGeometry y="26" width="190" height="104" as="geometry" />
        </mxCell>
        <mxCell id="L3DIIkoHckH0TgxC9d3S-16" value="rearc_covid_19_testing_data_states_daily" style="swimlane;fontStyle=0;childLayout=stackLayout;horizontal=1;startSize=26;fillColor=none;horizontalStack=0;resizeParent=1;resizeParentMax=0;resizeLast=0;collapsible=1;marginBottom=0;whiteSpace=wrap;html=1;" parent="1" vertex="1">
          <mxGeometry x="265" y="690" width="320" height="990" as="geometry" />
        </mxCell>
        <mxCell id="L3DIIkoHckH0TgxC9d3S-17" value="&lt;pre style=&quot;border-color: var(--border-color); orphans: 2; text-align: left; text-indent: 0px; widows: 2; text-decoration-thickness: initial; text-decoration-style: initial; text-decoration-color: initial; background-image: initial; background-position: initial; background-size: initial; background-repeat: initial; background-attachment: initial; background-origin: initial; background-clip: initial; margin-top: 0px; margin-bottom: 0px; overflow: auto; padding: var(--space-scaled-xl-rljqft, 24px) var(--space-xl-5fdwzu, 24px); -webkit-font-smoothing: auto; line-height: var(--line-height-body-s-n0pazd, 16px);&quot; class=&quot;awsui_root_18wu0_1v7to_93 awsui_box_18wu0_1v7to_207 awsui_pre-variant_18wu0_1v7to_207 awsui_p-xl_18wu0_1v7to_677 awsui_color-default_18wu0_1v7to_207 awsui_font-size-body-s_18wu0_1v7to_349 awsui_font-weight-default_18wu0_1v7to_263&quot; data-testid=&quot;query-results-text&quot;&gt;&lt;font face=&quot;Monaco, Menlo, Consolas, Courier Prime, Courier, Courier New, monospace&quot;&gt;`date` bigint, &lt;br/&gt;`state` string, &lt;br/&gt;`positive` bigint, &lt;br/&gt;`probablecases` bigint, &lt;br/&gt;`negative` bigint, &lt;br/&gt;`pending` bigint, &lt;br/&gt;`totaltestresultssource` string, &lt;br/&gt;`totaltestresults` bigint, &lt;br/&gt;`hospitalizedcurrently` bigint, &lt;br/&gt;`hospitalizedcumulative` bigint, &lt;br/&gt;`inicucurrently` bigint, &lt;br/&gt;`inicucumulative` bigint, &lt;br/&gt;`onventilatorcurrently` bigint, &lt;br/&gt;`onventilatorcumulative` bigint, &lt;br/&gt;`recovered` bigint, &lt;br/&gt;`lastupdateet` string, &lt;br/&gt;`datemodified` string, &lt;br/&gt;`checktimeet` string, &lt;br/&gt;`death` bigint, &lt;br/&gt;`hospitalized` bigint, &lt;br/&gt;`hospitalizeddischarged` bigint, &lt;br/&gt;`datechecked` string, &lt;br/&gt;`totaltestsviral` bigint, &lt;br/&gt;`positivetestsviral` bigint, &lt;br/&gt;`negativetestsviral` bigint, &lt;br/&gt;`positivecasesviral` bigint, &lt;br/&gt;`deathconfirmed` bigint, &lt;br/&gt;`deathprobable` bigint, &lt;br/&gt;`totaltestencountersviral` bigint, &lt;br/&gt;`totaltestspeopleviral` bigint, &lt;br/&gt;`totaltestsantibody` bigint, &lt;br/&gt;`positivetestsantibody` bigint, &lt;br/&gt;`negativetestsantibody` bigint, &lt;br/&gt;`totaltestspeopleantibody` bigint, &lt;br/&gt;`positivetestspeopleantibody` bigint, &lt;br/&gt;`negativetestspeopleantibody` bigint, &lt;br/&gt;`totaltestspeopleantigen` bigint, &lt;br/&gt;`positivetestspeopleantigen` bigint, &lt;br/&gt;`totaltestsantigen` bigint, &lt;br/&gt;`positivetestsantigen` bigint, &lt;br/&gt;`fips` bigint, &lt;br/&gt;`positiveincrease` bigint, &lt;br/&gt;`negativeincrease` bigint, &lt;br/&gt;`total` bigint, &lt;br/&gt;`totaltestresultsincrease` bigint, &lt;br/&gt;`posneg` bigint, &lt;br/&gt;`dataqualitygrade` string, &lt;br/&gt;`deathincrease` bigint, &lt;br/&gt;`hospitalizedincrease` bigint, &lt;br/&gt;`hash` string, &lt;br/&gt;`commercialscore` bigint, &lt;br/&gt;`negativeregularscore` bigint, &lt;br/&gt;`negativescore` bigint, &lt;br/&gt;`positivescore` bigint, &lt;br/&gt;`score` bigint, &lt;br/&gt;`grade` string&lt;/font&gt;&lt;font face=&quot;var(--font-family-monospace-yt4nwf, Monaco, Menlo, Consolas, Courier Prime, Courier, Courier New, monospace)&quot;&gt;&lt;br&gt;&lt;/font&gt;&lt;/pre&gt;" style="text;align=left;verticalAlign=middle;spacingLeft=4;spacingRight=4;overflow=hidden;rotatable=0;points=[[0,0.5],[1,0.5]];portConstraint=eastwest;whiteSpace=wrap;html=1;fontColor=default;labelBackgroundColor=none;spacing=0;spacingTop=-10;" parent="L3DIIkoHckH0TgxC9d3S-16" vertex="1">
          <mxGeometry y="26" width="320" height="964" as="geometry" />
        </mxCell>
        <mxCell id="L3DIIkoHckH0TgxC9d3S-19" value="rearc_covid_19_testing_dataus_daily" style="swimlane;fontStyle=0;childLayout=stackLayout;horizontal=1;startSize=26;fillColor=none;horizontalStack=0;resizeParent=1;resizeParentMax=0;resizeLast=0;collapsible=1;marginBottom=0;whiteSpace=wrap;html=1;" parent="1" vertex="1">
          <mxGeometry x="760" y="530" width="280" height="490" as="geometry" />
        </mxCell>
        <mxCell id="L3DIIkoHckH0TgxC9d3S-42" style="edgeStyle=orthogonalEdgeStyle;rounded=0;orthogonalLoop=1;jettySize=auto;html=1;exitX=0;exitY=0.5;exitDx=0;exitDy=0;entryX=0;entryY=0.5;entryDx=0;entryDy=0;" parent="L3DIIkoHckH0TgxC9d3S-19" target="L3DIIkoHckH0TgxC9d3S-20" edge="1">
          <mxGeometry relative="1" as="geometry">
            <mxPoint x="-140.00000000000023" y="-200" as="sourcePoint" />
            <Array as="points">
              <mxPoint x="-140" y="170" />
              <mxPoint x="-139" y="258" />
            </Array>
          </mxGeometry>
        </mxCell>
        <mxCell id="L3DIIkoHckH0TgxC9d3S-20" value="&lt;pre style=&quot;border-color: var(--border-color); orphans: 2; text-align: left; text-indent: 0px; widows: 2; text-decoration-thickness: initial; text-decoration-style: initial; text-decoration-color: initial; background-image: initial; background-position: initial; background-size: initial; background-repeat: initial; background-attachment: initial; background-origin: initial; background-clip: initial; margin-top: 0px; margin-bottom: 0px; overflow: auto; padding: var(--space-scaled-xl-rljqft, 24px) var(--space-xl-5fdwzu, 24px); -webkit-font-smoothing: auto; line-height: var(--line-height-body-s-n0pazd, 16px);&quot; class=&quot;awsui_root_18wu0_1v7to_93 awsui_box_18wu0_1v7to_207 awsui_pre-variant_18wu0_1v7to_207 awsui_p-xl_18wu0_1v7to_677 awsui_color-default_18wu0_1v7to_207 awsui_font-size-body-s_18wu0_1v7to_349 awsui_font-weight-default_18wu0_1v7to_263&quot; data-testid=&quot;query-results-text&quot;&gt;&lt;font face=&quot;Monaco, Menlo, Consolas, Courier Prime, Courier, Courier New, monospace&quot;&gt;`date` bigint, &lt;br/&gt;`states` bigint, &lt;br/&gt;`positive` bigint, &lt;br/&gt;`negative` bigint, &lt;br/&gt;`pending` bigint, &lt;br/&gt;`hospitalizedcurrently` bigint, &lt;br/&gt;`hospitalizedcumulative` bigint, &lt;br/&gt;`inicucurrently` bigint, &lt;br/&gt;`inicucumulative` bigint, &lt;br/&gt;`onventilatorcurrently` bigint, &lt;br/&gt;`onventilatorcumulative` bigint, &lt;br/&gt;`datechecked` string, &lt;br/&gt;`death` bigint, &lt;br/&gt;`hospitalized` bigint, &lt;br/&gt;`totaltestresults` bigint, &lt;br/&gt;`lastmodified` string, &lt;br/&gt;`recovered` string, &lt;br/&gt;`total` bigint, &lt;br/&gt;`posneg` bigint, &lt;br/&gt;`deathincrease` bigint, &lt;br/&gt;`hospitalizedincrease` bigint, &lt;br/&gt;`negativeincrease` bigint, &lt;br/&gt;`positiveincrease` bigint, &lt;br/&gt;`totaltestresultsincrease` bigint, &lt;br/&gt;`hash` string&lt;/font&gt;&lt;font face=&quot;var(--font-family-monospace-yt4nwf, Monaco, Menlo, Consolas, Courier Prime, Courier, Courier New, monospace)&quot;&gt;&lt;br&gt;&lt;/font&gt;&lt;/pre&gt;" style="text;align=left;verticalAlign=middle;spacingLeft=4;spacingRight=4;overflow=hidden;rotatable=0;points=[[0,0.5],[1,0.5]];portConstraint=eastwest;whiteSpace=wrap;html=1;fontColor=default;labelBackgroundColor=none;spacing=0;spacingTop=-10;" parent="L3DIIkoHckH0TgxC9d3S-19" vertex="1">
          <mxGeometry y="26" width="280" height="464" as="geometry" />
        </mxCell>
        <mxCell id="L3DIIkoHckH0TgxC9d3S-21" value="static_data_countrycode" style="swimlane;fontStyle=0;childLayout=stackLayout;horizontal=1;startSize=26;fillColor=none;horizontalStack=0;resizeParent=1;resizeParentMax=0;resizeLast=0;collapsible=1;marginBottom=0;whiteSpace=wrap;html=1;" parent="1" vertex="1">
          <mxGeometry x="1040" y="230" width="200" height="170" as="geometry" />
        </mxCell>
        <mxCell id="L3DIIkoHckH0TgxC9d3S-41" style="edgeStyle=orthogonalEdgeStyle;rounded=0;orthogonalLoop=1;jettySize=auto;html=1;" parent="L3DIIkoHckH0TgxC9d3S-21" target="L3DIIkoHckH0TgxC9d3S-22" edge="1">
          <mxGeometry relative="1" as="geometry">
            <mxPoint x="-460.0000000000002" y="98" as="sourcePoint" />
          </mxGeometry>
        </mxCell>
        <mxCell id="L3DIIkoHckH0TgxC9d3S-22" value="&lt;pre style=&quot;border-color: var(--border-color); orphans: 2; text-align: left; text-indent: 0px; widows: 2; text-decoration-thickness: initial; text-decoration-style: initial; text-decoration-color: initial; background-image: initial; background-position: initial; background-size: initial; background-repeat: initial; background-attachment: initial; background-origin: initial; background-clip: initial; margin-top: 0px; margin-bottom: 0px; overflow: auto; padding: var(--space-scaled-xl-rljqft, 24px) var(--space-xl-5fdwzu, 24px); -webkit-font-smoothing: auto; line-height: var(--line-height-body-s-n0pazd, 16px);&quot; class=&quot;awsui_root_18wu0_1v7to_93 awsui_box_18wu0_1v7to_207 awsui_pre-variant_18wu0_1v7to_207 awsui_p-xl_18wu0_1v7to_677 awsui_color-default_18wu0_1v7to_207 awsui_font-size-body-s_18wu0_1v7to_349 awsui_font-weight-default_18wu0_1v7to_263&quot; data-testid=&quot;query-results-text&quot;&gt;&lt;font face=&quot;Monaco, Menlo, Consolas, Courier Prime, Courier, Courier New, monospace&quot;&gt;`country` string, &lt;br/&gt;`alpha-2 code` string, &lt;br/&gt;`alpha-3 code` string, &lt;br/&gt;`numeric code` bigint, &lt;br/&gt;`latitude` double, &lt;br/&gt;`longitude` double&lt;/font&gt;&lt;font face=&quot;var(--font-family-monospace-yt4nwf, Monaco, Menlo, Consolas, Courier Prime, Courier, Courier New, monospace)&quot;&gt;&lt;br&gt;&lt;/font&gt;&lt;/pre&gt;" style="text;align=left;verticalAlign=middle;spacingLeft=4;spacingRight=4;overflow=hidden;rotatable=0;points=[[0,0.5],[1,0.5]];portConstraint=eastwest;whiteSpace=wrap;html=1;fontColor=default;labelBackgroundColor=none;spacing=0;spacingTop=-10;" parent="L3DIIkoHckH0TgxC9d3S-21" vertex="1">
          <mxGeometry y="26" width="200" height="144" as="geometry" />
        </mxCell>
        <mxCell id="L3DIIkoHckH0TgxC9d3S-23" value="static_data_countypopulation" style="swimlane;fontStyle=0;childLayout=stackLayout;horizontal=1;startSize=26;fillColor=none;horizontalStack=0;resizeParent=1;resizeParentMax=0;resizeLast=0;collapsible=1;marginBottom=0;whiteSpace=wrap;html=1;" parent="1" vertex="1">
          <mxGeometry x="1240" y="560" width="300" height="180" as="geometry" />
        </mxCell>
        <mxCell id="L3DIIkoHckH0TgxC9d3S-24" value="&lt;pre style=&quot;border-color: var(--border-color); orphans: 2; text-align: left; text-indent: 0px; widows: 2; text-decoration-thickness: initial; text-decoration-style: initial; text-decoration-color: initial; background-image: initial; background-position: initial; background-size: initial; background-repeat: initial; background-attachment: initial; background-origin: initial; background-clip: initial; margin-top: 0px; margin-bottom: 0px; overflow: auto; padding: var(--space-scaled-xl-rljqft, 24px) var(--space-xl-5fdwzu, 24px); -webkit-font-smoothing: auto; line-height: var(--line-height-body-s-n0pazd, 16px);&quot; class=&quot;awsui_root_18wu0_1v7to_93 awsui_box_18wu0_1v7to_207 awsui_pre-variant_18wu0_1v7to_207 awsui_p-xl_18wu0_1v7to_677 awsui_color-default_18wu0_1v7to_207 awsui_font-size-body-s_18wu0_1v7to_349 awsui_font-weight-default_18wu0_1v7to_263&quot; data-testid=&quot;query-results-text&quot;&gt;&lt;font face=&quot;Monaco, Menlo, Consolas, Courier Prime, Courier, Courier New, monospace&quot;&gt;`id` string, &lt;br/&gt;`id2` bigint, &lt;br/&gt;`county` string, &lt;br/&gt;`state` string, &lt;br/&gt;`population estimate 2018` bigint&lt;/font&gt;&lt;font face=&quot;var(--font-family-monospace-yt4nwf, Monaco, Menlo, Consolas, Courier Prime, Courier, Courier New, monospace)&quot;&gt;&lt;br&gt;&lt;/font&gt;&lt;/pre&gt;" style="text;align=left;verticalAlign=middle;spacingLeft=4;spacingRight=4;overflow=hidden;rotatable=0;points=[[0,0.5],[1,0.5]];portConstraint=eastwest;whiteSpace=wrap;html=1;fontColor=default;labelBackgroundColor=none;spacing=0;spacingTop=-10;" parent="L3DIIkoHckH0TgxC9d3S-23" vertex="1">
          <mxGeometry y="26" width="300" height="154" as="geometry" />
        </mxCell>
        <mxCell id="L3DIIkoHckH0TgxC9d3S-36" style="edgeStyle=orthogonalEdgeStyle;rounded=0;orthogonalLoop=1;jettySize=auto;html=1;" parent="L3DIIkoHckH0TgxC9d3S-23" target="L3DIIkoHckH0TgxC9d3S-25" edge="1">
          <mxGeometry relative="1" as="geometry">
            <mxPoint x="300" y="104.35000000000002" as="sourcePoint" />
            <mxPoint x="441" y="280.0000000000001" as="targetPoint" />
            <Array as="points">
              <mxPoint x="340" y="104" />
              <mxPoint x="340" y="230" />
              <mxPoint x="130" y="230" />
            </Array>
          </mxGeometry>
        </mxCell>
        <mxCell id="L3DIIkoHckH0TgxC9d3S-25" value="nytimes_data_in_usa_us_states" style="swimlane;fontStyle=0;childLayout=stackLayout;horizontal=1;startSize=26;fillColor=none;horizontalStack=0;resizeParent=1;resizeParentMax=0;resizeLast=0;collapsible=1;marginBottom=0;whiteSpace=wrap;html=1;" parent="1" vertex="1">
          <mxGeometry x="1260" y="840" width="220" height="90" as="geometry" />
        </mxCell>
        <mxCell id="L3DIIkoHckH0TgxC9d3S-26" value="&lt;pre style=&quot;border-color: var(--border-color); orphans: 2; text-align: left; text-indent: 0px; widows: 2; text-decoration-thickness: initial; text-decoration-style: initial; text-decoration-color: initial; background-image: initial; background-position: initial; background-size: initial; background-repeat: initial; background-attachment: initial; background-origin: initial; background-clip: initial; margin-top: 0px; margin-bottom: 0px; overflow: auto; padding: var(--space-scaled-xl-rljqft, 24px) var(--space-xl-5fdwzu, 24px); -webkit-font-smoothing: auto; line-height: var(--line-height-body-s-n0pazd, 16px);&quot; class=&quot;awsui_root_18wu0_1v7to_93 awsui_box_18wu0_1v7to_207 awsui_pre-variant_18wu0_1v7to_207 awsui_p-xl_18wu0_1v7to_677 awsui_color-default_18wu0_1v7to_207 awsui_font-size-body-s_18wu0_1v7to_349 awsui_font-weight-default_18wu0_1v7to_263&quot; data-testid=&quot;query-results-text&quot;&gt;&lt;font face=&quot;Monaco, Menlo, Consolas, Courier Prime, Courier, Courier New, monospace&quot;&gt;`state` string, &lt;br&gt;`abbrevation` string, &lt;br&gt;&lt;/font&gt;&lt;font face=&quot;var(--font-family-monospace-yt4nwf, Monaco, Menlo, Consolas, Courier Prime, Courier, Courier New, monospace)&quot;&gt;&lt;br&gt;&lt;/font&gt;&lt;/pre&gt;" style="text;align=left;verticalAlign=middle;spacingLeft=4;spacingRight=4;overflow=hidden;rotatable=0;points=[[0,0.5],[1,0.5]];portConstraint=eastwest;whiteSpace=wrap;html=1;fontColor=default;labelBackgroundColor=none;spacing=0;spacingTop=-10;" parent="L3DIIkoHckH0TgxC9d3S-25" vertex="1">
          <mxGeometry y="26" width="220" height="64" as="geometry" />
        </mxCell>
        <mxCell id="L3DIIkoHckH0TgxC9d3S-27" style="edgeStyle=orthogonalEdgeStyle;rounded=0;orthogonalLoop=1;jettySize=auto;html=1;exitX=1;exitY=0.5;exitDx=0;exitDy=0;entryX=0;entryY=0.5;entryDx=0;entryDy=0;" parent="1" source="L3DIIkoHckH0TgxC9d3S-20" target="L3DIIkoHckH0TgxC9d3S-24" edge="1">
          <mxGeometry relative="1" as="geometry">
            <Array as="points">
              <mxPoint x="1150" y="788" />
              <mxPoint x="1150" y="663" />
            </Array>
          </mxGeometry>
        </mxCell>
        <mxCell id="L3DIIkoHckH0TgxC9d3S-28" style="edgeStyle=orthogonalEdgeStyle;rounded=0;orthogonalLoop=1;jettySize=auto;html=1;exitX=1;exitY=0.5;exitDx=0;exitDy=0;entryX=0;entryY=0.5;entryDx=0;entryDy=0;" parent="1" source="L3DIIkoHckH0TgxC9d3S-20" target="L3DIIkoHckH0TgxC9d3S-26" edge="1">
          <mxGeometry relative="1" as="geometry" />
        </mxCell>
        <mxCell id="L3DIIkoHckH0TgxC9d3S-33" value="rearc_usa_hospital_beds_rearc_usa_hospital_beds" style="swimlane;fontStyle=0;childLayout=stackLayout;horizontal=1;startSize=26;fillColor=none;horizontalStack=0;resizeParent=1;resizeParentMax=0;resizeLast=0;collapsible=1;marginBottom=0;whiteSpace=wrap;html=1;" parent="1" vertex="1">
          <mxGeometry x="760" y="1180" width="510" height="490" as="geometry" />
        </mxCell>
        <mxCell id="L3DIIkoHckH0TgxC9d3S-43" style="edgeStyle=orthogonalEdgeStyle;rounded=0;orthogonalLoop=1;jettySize=auto;html=1;exitX=0;exitY=0.5;exitDx=0;exitDy=0;entryX=0;entryY=0.5;entryDx=0;entryDy=0;" parent="L3DIIkoHckH0TgxC9d3S-33" target="L3DIIkoHckH0TgxC9d3S-34" edge="1">
          <mxGeometry relative="1" as="geometry">
            <mxPoint x="-60.00000000000023" y="-850" as="sourcePoint" />
          </mxGeometry>
        </mxCell>
        <mxCell id="L3DIIkoHckH0TgxC9d3S-34" value="&lt;pre style=&quot;border-color: var(--border-color); orphans: 2; text-align: left; text-indent: 0px; widows: 2; text-decoration-thickness: initial; text-decoration-style: initial; text-decoration-color: initial; background-image: initial; background-position: initial; background-size: initial; background-repeat: initial; background-attachment: initial; background-origin: initial; background-clip: initial; margin-top: 0px; margin-bottom: 0px; overflow: auto; padding: var(--space-scaled-xl-rljqft, 24px) var(--space-xl-5fdwzu, 24px); -webkit-font-smoothing: auto; line-height: var(--line-height-body-s-n0pazd, 16px);&quot; class=&quot;awsui_root_18wu0_1v7to_93 awsui_box_18wu0_1v7to_207 awsui_pre-variant_18wu0_1v7to_207 awsui_p-xl_18wu0_1v7to_677 awsui_color-default_18wu0_1v7to_207 awsui_font-size-body-s_18wu0_1v7to_349 awsui_font-weight-default_18wu0_1v7to_263&quot; data-testid=&quot;query-results-text&quot;&gt;&lt;font face=&quot;Monaco, Menlo, Consolas, Courier Prime, Courier, Courier New, monospace&quot;&gt;`objectid` int COMMENT &#39;from deserializer&#39;, &lt;br/&gt;`hospital_name` string COMMENT &#39;from deserializer&#39;, &lt;br/&gt;`hospital_type` string COMMENT &#39;from deserializer&#39;, &lt;br/&gt;`hq_address` string COMMENT &#39;from deserializer&#39;, &lt;br/&gt;`hq_address1` string COMMENT &#39;from deserializer&#39;, &lt;br/&gt;`hq_city` string COMMENT &#39;from deserializer&#39;, &lt;br/&gt;`hq_state` string COMMENT &#39;from deserializer&#39;, &lt;br/&gt;`hq_zip_code` string COMMENT &#39;from deserializer&#39;, &lt;br/&gt;`county_name` string COMMENT &#39;from deserializer&#39;, &lt;br/&gt;`state_name` string COMMENT &#39;from deserializer&#39;, &lt;br/&gt;`state_fips` string COMMENT &#39;from deserializer&#39;, &lt;br/&gt;`cnty_fips` string COMMENT &#39;from deserializer&#39;, &lt;br/&gt;`fips` string COMMENT &#39;from deserializer&#39;, &lt;br/&gt;`num_licensed_beds` int COMMENT &#39;from deserializer&#39;, &lt;br/&gt;`num_staffed_beds` int COMMENT &#39;from deserializer&#39;, &lt;br/&gt;`num_icu_beds` int COMMENT &#39;from deserializer&#39;, &lt;br/&gt;`adult_icu_beds` int COMMENT &#39;from deserializer&#39;, &lt;br/&gt;`pedi_icu_beds` double COMMENT &#39;from deserializer&#39;, &lt;br/&gt;`bed_utilization` double COMMENT &#39;from deserializer&#39;, &lt;br/&gt;`avg_ventilator_usage` double COMMENT &#39;from deserializer&#39;, &lt;br/&gt;`potential_increase_in_bed_capac` int COMMENT &#39;from deserializer&#39;, &lt;br/&gt;`latitude` double COMMENT &#39;from deserializer&#39;, &lt;br/&gt;`longtitude` double COMMENT &#39;from deserializer&#39;&lt;/font&gt;&lt;font face=&quot;var(--font-family-monospace-yt4nwf, Monaco, Menlo, Consolas, Courier Prime, Courier, Courier New, monospace)&quot;&gt;&lt;br&gt;&lt;/font&gt;&lt;/pre&gt;" style="text;align=left;verticalAlign=middle;spacingLeft=4;spacingRight=4;overflow=hidden;rotatable=0;points=[[0,0.5],[1,0.5]];portConstraint=eastwest;whiteSpace=wrap;html=1;fontColor=default;labelBackgroundColor=none;spacing=0;spacingTop=-10;" parent="L3DIIkoHckH0TgxC9d3S-33" vertex="1">
          <mxGeometry y="26" width="510" height="464" as="geometry" />
        </mxCell>
        <mxCell id="L3DIIkoHckH0TgxC9d3S-35" style="edgeStyle=orthogonalEdgeStyle;rounded=0;orthogonalLoop=1;jettySize=auto;html=1;exitX=0;exitY=0.5;exitDx=0;exitDy=0;entryX=1.011;entryY=0.147;entryDx=0;entryDy=0;entryPerimeter=0;" parent="1" source="L3DIIkoHckH0TgxC9d3S-20" target="L3DIIkoHckH0TgxC9d3S-17" edge="1">
          <mxGeometry relative="1" as="geometry">
            <Array as="points">
              <mxPoint x="630" y="788" />
              <mxPoint x="630" y="858" />
            </Array>
          </mxGeometry>
        </mxCell>
      </root>
    </mxGraphModel>
  </diagram>
  <diagram id="jLHs5gJWFfqgBx7PKvJD" name="Dimension Model ">
    <mxGraphModel dx="1515" dy="780" grid="1" gridSize="10" guides="1" tooltips="1" connect="1" arrows="1" fold="1" page="1" pageScale="1" pageWidth="850" pageHeight="1100" math="0" shadow="0">
      <root>
        <mxCell id="0" />
        <mxCell id="1" parent="0" />
        <mxCell id="M9RJsrBhI1-W6jiFPCXK-2" value="factCovid" style="swimlane;childLayout=stackLayout;horizontal=1;startSize=50;horizontalStack=0;rounded=1;fontSize=14;fontStyle=0;strokeWidth=2;resizeParent=0;resizeLast=1;shadow=0;dashed=0;align=center;arcSize=4;whiteSpace=wrap;html=1;" vertex="1" parent="1">
          <mxGeometry x="530" y="280" width="220" height="280" as="geometry" />
        </mxCell>
        <mxCell id="M9RJsrBhI1-W6jiFPCXK-3" value="&lt;div style=&quot;text-align: justify; font-size: 14px;&quot;&gt;&lt;font style=&quot;font-size: 14px;&quot;&gt;FIPS,&lt;/font&gt;&lt;/div&gt;&lt;div style=&quot;text-align: justify; font-size: 14px;&quot;&gt;&lt;font style=&quot;font-size: 14px;&quot;&gt;states,&lt;/font&gt;&lt;/div&gt;&lt;div style=&quot;text-align: justify; font-size: 14px;&quot;&gt;&lt;font style=&quot;font-size: 14px;&quot;&gt;region,&lt;/font&gt;&lt;/div&gt;&lt;div style=&quot;text-align: justify; font-size: 14px;&quot;&gt;&lt;font style=&quot;font-size: 14px;&quot;&gt;confirmed,&lt;/font&gt;&lt;/div&gt;&lt;div style=&quot;text-align: justify; font-size: 14px;&quot;&gt;&lt;font style=&quot;font-size: 14px;&quot;&gt;death,&lt;/font&gt;&lt;/div&gt;&lt;div style=&quot;text-align: justify; font-size: 14px;&quot;&gt;&lt;font style=&quot;font-size: 14px;&quot;&gt;recovered,&lt;/font&gt;&lt;/div&gt;&lt;div style=&quot;text-align: justify; font-size: 14px;&quot;&gt;&lt;font style=&quot;font-size: 14px;&quot;&gt;active,&lt;/font&gt;&lt;/div&gt;&lt;div style=&quot;text-align: justify; font-size: 14px;&quot;&gt;&lt;font style=&quot;font-size: 14px;&quot;&gt;positive,&lt;/font&gt;&lt;/div&gt;&lt;div style=&quot;text-align: justify; font-size: 14px;&quot;&gt;&lt;font style=&quot;font-size: 14px;&quot;&gt;negative,&lt;/font&gt;&lt;/div&gt;&lt;div style=&quot;text-align: justify; font-size: 14px;&quot;&gt;&lt;font style=&quot;font-size: 14px;&quot;&gt;hospitalizedcurrently,&lt;/font&gt;&lt;/div&gt;&lt;div style=&quot;text-align: justify; font-size: 14px;&quot;&gt;&lt;font style=&quot;font-size: 14px;&quot;&gt;hospitalized,&lt;/font&gt;&lt;/div&gt;&lt;div style=&quot;text-align: justify; font-size: 14px;&quot;&gt;&lt;font style=&quot;font-size: 14px;&quot;&gt;hospitalizeddischarged&lt;/font&gt;&lt;/div&gt;" style="align=center;strokeColor=none;fillColor=none;spacingLeft=4;fontSize=12;verticalAlign=top;resizable=0;rotatable=0;part=1;html=1;" vertex="1" parent="M9RJsrBhI1-W6jiFPCXK-2">
          <mxGeometry y="50" width="220" height="230" as="geometry" />
        </mxCell>
        <mxCell id="M9RJsrBhI1-W6jiFPCXK-4" value="dimRegion" style="swimlane;childLayout=stackLayout;horizontal=1;startSize=50;horizontalStack=0;rounded=1;fontSize=14;fontStyle=0;strokeWidth=2;resizeParent=0;resizeLast=1;shadow=0;dashed=0;align=center;arcSize=4;whiteSpace=wrap;html=1;" vertex="1" parent="1">
          <mxGeometry x="100" y="150" width="150" height="190" as="geometry" />
        </mxCell>
        <mxCell id="M9RJsrBhI1-W6jiFPCXK-5" value="&lt;div style=&quot;text-align: justify; font-size: 14px;&quot;&gt;&lt;font style=&quot;font-size: 14px;&quot;&gt;fips,&lt;/font&gt;&lt;/div&gt;&lt;div style=&quot;text-align: justify; font-size: 14px;&quot;&gt;&lt;font style=&quot;font-size: 14px;&quot;&gt;state,&lt;/font&gt;&lt;/div&gt;&lt;div style=&quot;text-align: justify; font-size: 14px;&quot;&gt;&lt;font style=&quot;font-size: 14px;&quot;&gt;region,&lt;/font&gt;&lt;/div&gt;&lt;div style=&quot;text-align: justify; font-size: 14px;&quot;&gt;&lt;font style=&quot;font-size: 14px;&quot;&gt;lat,&lt;/font&gt;&lt;/div&gt;&lt;div style=&quot;text-align: justify; font-size: 14px;&quot;&gt;&lt;font style=&quot;font-size: 14px;&quot;&gt;lang,&lt;/font&gt;&lt;/div&gt;&lt;div style=&quot;text-align: justify; font-size: 14px;&quot;&gt;&lt;font style=&quot;font-size: 14px;&quot;&gt;county,&lt;/font&gt;&lt;/div&gt;&lt;div style=&quot;text-align: justify; font-size: 14px;&quot;&gt;&lt;font style=&quot;font-size: 14px;&quot;&gt;state_abb,&lt;/font&gt;&lt;/div&gt;" style="align=center;strokeColor=none;fillColor=none;spacingLeft=4;fontSize=12;verticalAlign=top;resizable=0;rotatable=0;part=1;html=1;" vertex="1" parent="M9RJsrBhI1-W6jiFPCXK-4">
          <mxGeometry y="50" width="150" height="140" as="geometry" />
        </mxCell>
        <mxCell id="M9RJsrBhI1-W6jiFPCXK-6" value="dimHospital" style="swimlane;childLayout=stackLayout;horizontal=1;startSize=50;horizontalStack=0;rounded=1;fontSize=14;fontStyle=0;strokeWidth=2;resizeParent=0;resizeLast=1;shadow=0;dashed=0;align=center;arcSize=4;whiteSpace=wrap;html=1;" vertex="1" parent="1">
          <mxGeometry x="960" y="160" width="160" height="210" as="geometry" />
        </mxCell>
        <mxCell id="M9RJsrBhI1-W6jiFPCXK-7" value="&lt;div style=&quot;text-align: justify; font-size: 14px;&quot;&gt;&lt;font style=&quot;font-size: 14px;&quot;&gt;fips,&lt;/font&gt;&lt;/div&gt;&lt;div style=&quot;text-align: justify; font-size: 14px;&quot;&gt;&lt;font style=&quot;font-size: 14px;&quot;&gt;state,&lt;/font&gt;&lt;/div&gt;&lt;div style=&quot;text-align: justify; font-size: 14px;&quot;&gt;&lt;font style=&quot;font-size: 14px;&quot;&gt;hos_lat,&lt;/font&gt;&lt;/div&gt;&lt;div style=&quot;text-align: justify; font-size: 14px;&quot;&gt;&lt;font style=&quot;font-size: 14px;&quot;&gt;hos_lang,&lt;/font&gt;&lt;/div&gt;&lt;div style=&quot;text-align: justify; font-size: 14px;&quot;&gt;&lt;font style=&quot;font-size: 14px;&quot;&gt;hq_address,&lt;/font&gt;&lt;/div&gt;&lt;div style=&quot;text-align: justify; font-size: 14px;&quot;&gt;&lt;font style=&quot;font-size: 14px;&quot;&gt;hospital_type,&lt;/font&gt;&lt;/div&gt;&lt;div style=&quot;text-align: justify; font-size: 14px;&quot;&gt;&lt;font style=&quot;font-size: 14px;&quot;&gt;hospital_name,&lt;/font&gt;&lt;/div&gt;&lt;div style=&quot;text-align: justify; font-size: 14px;&quot;&gt;&lt;font style=&quot;font-size: 14px;&quot;&gt;hq_city,&lt;/font&gt;&lt;/div&gt;&lt;div style=&quot;text-align: justify; font-size: 14px;&quot;&gt;&lt;font style=&quot;font-size: 14px;&quot;&gt;hq_state,&lt;/font&gt;&lt;/div&gt;" style="align=center;strokeColor=none;fillColor=none;spacingLeft=4;fontSize=12;verticalAlign=top;resizable=0;rotatable=0;part=1;html=1;" vertex="1" parent="M9RJsrBhI1-W6jiFPCXK-6">
          <mxGeometry y="50" width="160" height="160" as="geometry" />
        </mxCell>
        <mxCell id="M9RJsrBhI1-W6jiFPCXK-8" value="dimDate" style="swimlane;childLayout=stackLayout;horizontal=1;startSize=50;horizontalStack=0;rounded=1;fontSize=14;fontStyle=0;strokeWidth=2;resizeParent=0;resizeLast=1;shadow=0;dashed=0;align=center;arcSize=4;whiteSpace=wrap;html=1;" vertex="1" parent="1">
          <mxGeometry x="537.5" y="640" width="205" height="150" as="geometry" />
        </mxCell>
        <mxCell id="M9RJsrBhI1-W6jiFPCXK-9" value="&lt;div style=&quot;text-align: justify; font-size: 14px;&quot;&gt;&lt;font style=&quot;font-size: 14px;&quot;&gt;fips,&lt;/font&gt;&lt;/div&gt;&lt;div style=&quot;text-align: justify; font-size: 14px;&quot;&gt;&lt;font style=&quot;font-size: 14px;&quot;&gt;date,&lt;/font&gt;&lt;/div&gt;&lt;div style=&quot;text-align: justify; font-size: 14px;&quot;&gt;&lt;font style=&quot;font-size: 14px;&quot;&gt;month,&lt;/font&gt;&lt;/div&gt;&lt;div style=&quot;text-align: justify; font-size: 14px;&quot;&gt;&lt;font style=&quot;font-size: 14px;&quot;&gt;year,&lt;/font&gt;&lt;/div&gt;&lt;div style=&quot;text-align: justify; font-size: 14px;&quot;&gt;&lt;font style=&quot;font-size: 14px;&quot;&gt;is_weekend&lt;/font&gt;&lt;/div&gt;" style="align=center;strokeColor=none;fillColor=none;spacingLeft=4;fontSize=12;verticalAlign=top;resizable=0;rotatable=0;part=1;html=1;" vertex="1" parent="M9RJsrBhI1-W6jiFPCXK-8">
          <mxGeometry y="50" width="205" height="100" as="geometry" />
        </mxCell>
        <mxCell id="M9RJsrBhI1-W6jiFPCXK-11" style="edgeStyle=orthogonalEdgeStyle;rounded=0;orthogonalLoop=1;jettySize=auto;html=1;entryX=0;entryY=0.5;entryDx=0;entryDy=0;" edge="1" parent="1" source="M9RJsrBhI1-W6jiFPCXK-3" target="M9RJsrBhI1-W6jiFPCXK-6">
          <mxGeometry relative="1" as="geometry" />
        </mxCell>
        <mxCell id="M9RJsrBhI1-W6jiFPCXK-12" style="edgeStyle=orthogonalEdgeStyle;rounded=0;orthogonalLoop=1;jettySize=auto;html=1;entryX=0.5;entryY=0;entryDx=0;entryDy=0;" edge="1" parent="1" source="M9RJsrBhI1-W6jiFPCXK-3" target="M9RJsrBhI1-W6jiFPCXK-8">
          <mxGeometry relative="1" as="geometry" />
        </mxCell>
        <mxCell id="M9RJsrBhI1-W6jiFPCXK-13" style="edgeStyle=orthogonalEdgeStyle;rounded=0;orthogonalLoop=1;jettySize=auto;html=1;entryX=1;entryY=0.5;entryDx=0;entryDy=0;" edge="1" parent="1" source="M9RJsrBhI1-W6jiFPCXK-3" target="M9RJsrBhI1-W6jiFPCXK-5">
          <mxGeometry relative="1" as="geometry" />
        </mxCell>
      </root>
    </mxGraphModel>
  </diagram>
</mxfile>
